<svg width="147" height="55" viewBox="0 0 147 55" fill="none" xmlns="http://www.w3.org/2000/svg">
<path d="M23.0817 14.1325V35.2695C23.0817 36.1005 22.4061 36.7763 21.5752 36.7763H21.2237C20.3928 36.7763 19.7172 36.1005 19.7172 35.2695V14.1325H12.0065C11.1757 14.1325 10.5 13.4567 10.5 12.6256C10.5 11.7946 11.1757 11.1188 12.0065 11.1188H30.7696C31.6004 11.1188 32.2761 11.7946 32.2761 12.6256C32.2761 13.4567 31.6004 14.1325 30.7696 14.1325H23.0863H23.0817Z" fill="#44361D"/>
<path d="M45.8351 27.6119C45.8351 33.1188 41.8953 37.2193 36.4855 37.2193C31.0757 37.2193 27.104 33.1188 27.104 27.6119C27.104 22.1051 31.0438 18.0046 36.4855 18.0046C41.9273 18.0046 45.8351 22.1051 45.8351 27.6119ZM30.3407 27.6119C30.3407 31.4247 32.8379 34.306 36.4855 34.306C40.1331 34.306 42.6029 31.4247 42.6029 27.6119C42.6029 23.7992 40.1057 20.9179 36.4855 20.9179C32.8653 20.9179 30.3407 23.7992 30.3407 27.6119Z" fill="#44361D"/>
<path d="M47.5469 27.6119C47.5469 22.1371 51.4227 18.0046 56.6088 18.0046C59.9369 18.0046 62.1784 19.6074 63.1097 21.1736V20.1005C63.1097 19.1919 63.8493 18.4521 64.7577 18.4521C65.6662 18.4521 66.4058 19.1919 66.4058 20.1005V35.1188C66.4058 36.0275 65.6662 36.7672 64.7577 36.7672C63.8493 36.7672 63.1097 36.0275 63.1097 35.1188V34.0457C62.183 35.6165 59.9414 37.2147 56.6088 37.2147C51.4227 37.2147 47.5469 33.0823 47.5469 27.6074V27.6119ZM63.1736 27.6119C63.1736 23.7992 60.6125 20.9179 56.8964 20.9179C53.1804 20.9179 50.7836 23.7992 50.7836 27.6119C50.7836 31.4247 53.2169 34.306 56.8964 34.306C60.576 34.306 63.1736 31.4247 63.1736 27.6119Z" fill="#44361D"/>
<path d="M82.6442 23.3197C82.0872 23.3197 81.5851 23.0183 81.3066 22.5343C80.6629 21.4247 78.8688 20.6941 76.6911 20.6941C74.0342 20.6941 72.1122 21.7489 72.1122 23.1279C72.1122 24.6348 73.2627 25.5617 77.7457 26.169C83.2514 26.9042 85.2053 28.6987 85.2053 31.548C85.2053 35.1005 81.4572 37.2147 76.9148 37.2147C73.3403 37.2147 70.7061 35.9544 69.4507 34.0275C68.7842 33.0001 69.5237 31.6439 70.7472 31.6439H70.802C71.3635 31.6439 71.884 31.9453 72.1442 32.4384C72.7514 33.5709 74.3492 34.5252 77.0061 34.5252C79.8229 34.5252 81.9685 33.3699 81.9685 31.7398C81.9685 30.233 80.5624 29.3699 76.1753 28.7946C71.1809 28.1234 68.8755 26.5206 68.8755 23.3197C68.8755 20.1188 72.2994 18.0046 76.7824 18.0046C79.9827 18.0046 82.6077 19.1279 83.9088 20.9042C84.6438 21.9042 83.8814 23.3197 82.6396 23.3197H82.6442Z" fill="#44361D"/>
<path d="M95.3129 21.3699H92.7016V35.3151C92.7016 36.1187 92.0488 36.7717 91.2453 36.7717H90.8618C90.0583 36.7717 89.4055 36.1187 89.4055 35.3151V21.3699H86.7942C85.9907 21.3699 85.3379 20.7169 85.3379 19.9133C85.3379 19.1096 85.9907 18.4566 86.7942 18.4566H89.4055V14.3425C89.4055 13.5388 90.0583 12.8859 90.8618 12.8859H91.2453C92.0488 12.8859 92.7016 13.5388 92.7016 14.3425V18.4566H95.3129C96.1164 18.4566 96.7692 19.1096 96.7692 19.9133C96.7692 20.7169 96.1164 21.3699 95.3129 21.3699Z" fill="#44361D"/>
<path d="M102.454 12.1781C102.454 13.4292 101.527 14.3562 100.244 14.3562C98.9604 14.3562 98.0654 13.4292 98.0654 12.1781C98.0654 10.9269 98.9924 10 100.244 10C101.495 10 102.454 10.9269 102.454 12.1781Z" fill="#44361D"/>
<path d="M101.909 20.105V21.242C102.676 19.895 104.758 18.0092 108.118 18.0092C112.441 18.0092 115.482 21.1142 115.482 26.0457V35.1233C115.482 36.032 114.742 36.7717 113.834 36.7717C112.925 36.7717 112.186 36.032 112.186 35.1233V26.621C112.186 22.9087 110.392 20.8904 107.415 20.8904C104.215 20.8904 101.909 23.8996 101.909 27.2968V35.1279C101.909 36.0366 101.17 36.7763 100.261 36.7763C99.3528 36.7763 98.6133 36.0366 98.6133 35.1279V20.105C98.6133 19.1964 99.3528 18.4566 100.261 18.4566C101.17 18.4566 101.909 19.1964 101.909 20.105Z" fill="#44361D"/>
<path d="M120.973 38.5023H121.151C121.768 38.5023 122.302 38.8859 122.553 39.4521C123.228 40.9772 124.822 42.1553 127.57 42.1553C130.898 42.1553 133.203 39.9133 133.203 36.3288V33.7991C132.277 35.3699 130.035 36.9681 126.703 36.9681C121.516 36.9681 117.641 32.8996 117.641 27.5206C117.641 22.1416 121.516 18.0092 126.703 18.0092C130.031 18.0092 132.272 19.6119 133.203 21.1781V19.9635C133.203 19.1324 133.879 18.4566 134.71 18.4566H134.993C135.824 18.4566 136.5 19.1324 136.5 19.9635V36.3562C136.5 41.4156 132.82 45 127.565 45C123.48 45 120.882 43.1553 119.636 40.7078C119.12 39.6987 119.841 38.4977 120.973 38.4977V38.5023ZM133.267 27.516C133.267 23.7671 130.706 20.9178 126.99 20.9178C123.274 20.9178 120.877 23.7671 120.877 27.516C120.877 31.2649 123.311 34.1142 126.99 34.1142C130.67 34.1142 133.267 31.2649 133.267 27.516Z" fill="#44361D"/>
</svg>
