<svg width="126" height="34" viewBox="0 0 126 34" fill="none" xmlns="http://www.w3.org/2000/svg">
<g clip-path="url(#clip0_495_2612)">
<path d="M64.7376 21.6602C65.4287 22.1241 66.0819 22.3514 66.6926 22.3514C67.4973 22.3514 68.1174 22.2236 68.5529 21.9679C68.9931 21.7123 69.2109 21.3526 69.2109 20.8887C69.2109 20.5478 68.9836 20.2496 68.5339 19.994C66.8488 19.0378 64.9127 18.6213 63.1802 17.7266C62.3992 17.3242 61.7317 16.7704 61.1684 16.0651C60.6051 15.355 60.3258 14.4935 60.3258 13.4711C60.3258 11.8379 60.9601 10.5646 62.224 9.63681C63.4926 8.70901 65.0973 8.24512 67.0476 8.24512C67.876 8.24512 68.728 8.41079 69.6085 8.73742C70.4842 9.06404 71.2747 9.58 71.98 10.2711C72.07 10.3563 72.3445 10.6309 72.6475 11.0474C73.1208 11.6959 73.4427 12.1409 73.3433 12.5669C73.2581 12.9314 72.8321 13.1444 71.98 13.5515C70.896 14.0675 70.3564 14.3278 69.9256 14.1716C69.2582 13.9302 69.4381 13.1965 68.5292 12.6143C67.9375 12.2356 67.3269 12.193 67.0476 12.193C66.4133 12.193 65.921 12.3113 65.5707 12.5385C65.2157 12.7705 65.0405 13.0829 65.0405 13.4711C65.0405 13.7882 65.2488 14.0628 65.6606 14.2947C66.0772 14.5267 66.7588 14.8249 67.7103 15.1894L67.999 15.2604L68.2925 15.3692C69.3623 15.7858 70.2854 16.1929 71.0522 16.5953C71.8191 16.9976 72.4818 17.5515 73.0451 18.2568C73.6037 18.9668 73.883 19.8141 73.883 20.8129C73.883 22.4697 73.225 23.7951 71.909 24.7939C70.5931 25.7927 68.8653 26.2945 66.721 26.2945C65.7979 26.2945 64.8606 26.1051 63.9092 25.7264C63.4926 25.5608 63.0997 25.3667 62.721 25.1442C62.3755 24.9407 61.8595 24.6282 61.353 24.1217C60.7944 23.5632 60.0276 22.8011 60.198 22.0389C60.2785 21.6839 60.553 21.4709 61.1069 21.0401C61.6749 20.5999 62.6216 19.8662 63.2512 20.1692C63.4879 20.2828 63.4358 20.4295 63.9376 20.9597C64.0275 21.0591 64.3494 21.4046 64.7281 21.6602H64.7376Z" fill="#44361D"/>
<path d="M86.4031 8.39659H82.8008V2.71149C82.8008 2.3612 82.5168 2.07245 82.1618 2.07245H78.7204C78.3701 2.07245 78.0814 2.35647 78.0814 2.71149V8.39659H75.2838C74.9335 8.39659 74.6448 8.68061 74.6448 9.03563V12.477C74.6448 12.8273 74.9288 13.116 75.2838 13.116H78.0814V25.627C78.0814 25.9773 78.3654 26.2661 78.7204 26.2661H82.1618C82.5121 26.2661 82.8008 25.9821 82.8008 25.627V13.116H86.4031C86.7534 13.116 87.0422 12.832 87.0422 12.477V9.03563C87.0422 8.68534 86.7582 8.39659 86.4031 8.39659Z" fill="#44361D"/>
<path d="M104.997 11.8143C104.202 10.5835 103.255 9.72202 102.148 9.22025C101.04 8.72322 99.9228 8.47234 98.8056 8.47234C97.7832 8.47234 96.7702 8.77056 95.7714 9.367C95.1276 9.75515 94.5785 10.2522 94.1241 10.8486C94.1241 10.2333 94.1383 9.61788 94.1383 9.00251C94.1383 8.64748 93.8495 8.36346 93.4992 8.36346H90.0389C89.6839 8.36346 89.3999 8.65222 89.3999 9.00251C89.3999 10.5835 89.4141 12.1598 89.4141 13.7409V23.1798C89.4141 23.9703 89.3999 24.7655 89.3999 25.556C89.3999 25.9111 89.6887 26.1951 90.0389 26.1951H93.4992C93.8543 26.1951 94.1383 25.9063 94.1383 25.556C94.1383 24.0555 94.1241 22.5596 94.1241 21.0591V16.0888C94.1856 15.4923 94.3324 14.948 94.5643 14.4699C94.8815 13.8119 95.3312 13.3054 95.9181 12.9551C96.5051 12.6001 97.1252 12.4249 97.7832 12.4249C98.9997 12.4249 99.9228 12.7989 100.543 13.5373C101.163 14.2805 101.475 15.3598 101.475 16.7704V21.4756C101.475 22.8437 101.452 24.1975 101.452 25.556C101.452 25.9111 101.74 26.1951 102.091 26.1951H105.551C105.906 26.1951 106.19 25.9063 106.19 25.556V16.6947C106.19 14.6734 105.792 13.045 105.002 11.8143H104.997Z" fill="#44361D"/>
<path d="M93.4943 1.39081H90.0434C89.6879 1.39081 89.3997 1.67904 89.3997 2.03458V5.48541C89.3997 5.84095 89.6879 6.12918 90.0434 6.12918H93.4943C93.8498 6.12918 94.138 5.84095 94.138 5.48541V2.03458C94.138 1.67904 93.8498 1.39081 93.4943 1.39081Z" fill="#44361D"/>
<path d="M17.5571 0.387268H13.6566C13.2566 0.387268 12.9324 0.711524 12.9324 1.11151V5.01203C12.9324 5.41202 13.2566 5.73628 13.6566 5.73628H17.5571C17.9571 5.73628 18.2814 5.41202 18.2814 5.01203V1.11151C18.2814 0.711524 17.9571 0.387268 17.5571 0.387268Z" fill="#44361D"/>
<path d="M17.5571 21.1348C15.9808 21.1348 14.3098 21.1585 12.9039 20.3064C11.7678 19.6153 10.9678 18.4366 10.7548 17.1207C10.717 16.8887 10.698 16.6521 10.698 16.4201V1.04998C10.7028 0.685487 10.4045 0.387268 10.04 0.387268H0.724247C0.321887 0.387268 0 0.709155 0 1.11151V5.01677C0 5.41439 0.321887 5.74101 0.724247 5.74101H5.35375V16.4012V16.4438C5.37741 21.8733 9.7797 26.3039 15.2139 26.3039H17.5618C17.9594 26.3039 18.286 25.9821 18.286 25.5797V21.8591C18.286 21.4614 17.9642 21.1348 17.5618 21.1348H17.5571Z" fill="#44361D"/>
<path d="M125.366 8.40605H121.953C121.603 8.40605 121.323 8.69007 121.323 9.03562V10.8581C120.703 10.0297 119.955 9.41431 119.075 9.01669C118.161 8.60013 117.276 8.39185 116.424 8.39185C114.791 8.39185 113.347 8.77054 112.093 9.52792C110.838 10.2853 109.868 11.3409 109.191 12.7089C108.509 14.0722 108.168 15.6201 108.168 17.3479C108.168 19.0757 108.509 20.6141 109.191 21.9537C109.873 23.2933 110.838 24.3489 112.093 25.1111C113.347 25.8779 114.791 26.2613 116.424 26.2613C117.252 26.2613 118.109 26.0767 118.999 25.7122C119.856 25.3572 120.632 24.8223 121.319 24.1075C121.319 24.7702 121.39 25.4377 121.214 26.0862C121.082 26.5785 120.85 27.0471 120.537 27.4495C119.988 28.1595 119.198 28.6708 118.322 28.8743C117.806 28.9926 117.243 28.969 116.713 28.9784C116.135 28.9879 115.562 28.9879 114.985 28.9784C113.768 28.95 112.547 28.9784 111.331 28.9784C110.923 28.9784 110.597 29.3098 110.597 29.7122V32.879C110.597 33.2861 110.928 33.6127 111.331 33.6127H116.074C117.711 33.6127 119.274 33.5795 120.803 32.9216C122.029 32.3961 123.122 31.5772 123.979 30.5595C125.2 29.1063 125.905 27.2649 125.972 25.3667C125.981 25.1679 125.991 24.9643 125.991 24.7608V9.04035C125.991 8.69007 125.707 8.41078 125.361 8.41078L125.366 8.40605ZM116.973 22.1904C114.658 22.1904 112.784 20.0129 112.784 17.329C112.784 14.645 114.658 12.4675 116.973 12.4675C119.288 12.4675 121.162 14.645 121.162 17.329C121.162 20.0129 119.288 22.1904 116.973 22.1904Z" fill="#44361D"/>
<path d="M56.4866 8.43442H53.0453C52.695 8.43442 52.4062 8.71844 52.4062 9.07346V10.8202C51.8287 10.0675 51.1329 9.49476 50.3045 9.11133C49.3909 8.6853 48.4584 8.47229 47.5069 8.47229C45.9259 8.47229 44.4963 8.85098 43.2324 9.60363C41.9638 10.361 40.9934 11.4166 40.3118 12.7846C39.6301 14.1479 39.2893 15.6958 39.2893 17.4236C39.2893 19.1514 39.6301 20.6614 40.3118 22.0294C40.9934 23.3927 41.9685 24.4531 43.2324 25.2104C44.501 25.9631 45.9259 26.3418 47.5069 26.3418C48.4584 26.3418 49.3909 26.1335 50.3045 25.7217C51.1281 25.3477 51.8287 24.7749 52.4062 24.0034V25.7075C52.4062 26.0578 52.6902 26.3465 53.0453 26.3465H56.4866C56.8369 26.3465 57.1257 26.0625 57.1257 25.7075V9.06873C57.1257 8.71844 56.8416 8.42969 56.4866 8.42969V8.43442ZM47.9424 22.2472C45.6276 22.2472 43.7531 20.0697 43.7531 17.3857C43.7531 14.7018 45.6276 12.5243 47.9424 12.5243C50.2571 12.5243 52.1317 14.7018 52.1317 17.3857C52.1317 20.0697 50.2571 22.2472 47.9424 22.2472Z" fill="#44361D"/>
<path d="M36.629 12.7279C35.9 11.3741 34.8681 10.3185 33.5379 9.54688C32.2125 8.78003 30.7214 8.39661 29.0599 8.39661C27.3984 8.39661 25.8789 8.78003 24.5677 9.54688C23.2518 10.3137 22.2293 11.3741 21.5003 12.7279C20.7713 14.0817 20.4021 15.6296 20.4021 17.3858C20.4021 19.142 20.7666 20.6189 21.5003 21.9727C22.2293 23.3265 23.2565 24.3821 24.5677 25.1537C25.8837 25.9205 27.3795 26.304 29.0599 26.304C30.7404 26.304 32.2031 25.9205 33.519 25.1537C34.835 24.3868 35.8669 23.3265 36.6053 21.9727C37.3485 20.6236 37.7225 19.0804 37.7225 17.3479C37.7225 15.6154 37.358 14.077 36.6243 12.7279H36.629ZM29.0647 22.2094C26.8872 22.2094 25.1168 20.0319 25.1168 17.3479C25.1168 14.6639 26.8825 12.4865 29.0647 12.4865C31.2469 12.4865 33.0125 14.6639 33.0125 17.3479C33.0125 20.0319 31.2469 22.2094 29.0647 22.2094Z" fill="#44361D"/>
</g>
<defs>
<clipPath id="clip0_495_2612">
<rect width="126" height="33.2254" fill="white" transform="translate(0 0.387268)"/>
</clipPath>
</defs>
</svg>
