<svg width="25" height="24" viewBox="0 0 25 24" fill="none" xmlns="http://www.w3.org/2000/svg">
<path fill-rule="evenodd" clip-rule="evenodd" d="M21.9044 12.1256C21.9044 11.4238 21.8417 10.7484 21.724 10.1005H12.4004V13.9296H17.7288C17.4989 15.1671 16.8015 16.2165 15.7532 16.9183V19.4021H18.952C20.8242 17.6784 21.9044 15.1407 21.9044 12.1256Z" fill="#3D82F0"/>
<path fill-rule="evenodd" clip-rule="evenodd" d="M12.4 21.8004C15.073 21.8004 17.3137 20.9138 18.9516 19.4024L15.7528 16.9175C14.8662 17.5115 13.7321 17.8624 12.4 17.8624C9.82163 17.8624 7.63923 16.1211 6.86043 13.7814H3.55273V16.3466C5.18183 19.5817 8.53023 21.8004 12.4 21.8004Z" fill="#31A752"/>
<path fill-rule="evenodd" clip-rule="evenodd" d="M6.8604 13.7814C6.6624 13.1874 6.5502 12.5527 6.5502 11.9004C6.5502 11.2481 6.6624 10.6134 6.8604 10.0194V7.45422H3.5527C2.8828 8.79072 2.5 10.3032 2.5 11.9004C2.5 13.4976 2.8828 15.0101 3.5527 16.3466L6.8604 13.7814Z" fill="#F9BA00"/>
<path fill-rule="evenodd" clip-rule="evenodd" d="M12.4 5.938C13.8531 5.938 15.1588 6.4374 16.184 7.4186L19.0242 4.5795C17.3093 2.9812 15.0686 2 12.4 2C8.53023 2 5.18183 4.2187 3.55273 7.4549L6.86043 10.019C7.63923 7.6793 9.82163 5.938 12.4 5.938Z" fill="#E64234"/>
</svg>
