<svg width="24" height="24" viewBox="0 0 24 24" fill="none" xmlns="http://www.w3.org/2000/svg">
<path fill-rule="evenodd" clip-rule="evenodd" d="M12.3891 15.9956C12.5843 15.8004 12.9009 15.8004 13.0962 15.9956C13.2914 16.1909 13.2914 16.5075 13.0962 16.7028L12 17.7989C10.3986 19.4003 7.80235 19.4003 6.20101 17.7989C4.59967 16.1976 4.59966 13.6013 6.201 12L7.2972 10.9038C7.49246 10.7085 7.80904 10.7085 8.0043 10.9038C8.19957 11.099 8.19957 11.4156 8.0043 11.6109L6.90811 12.7071C5.6973 13.9179 5.6973 15.881 6.90811 17.0918C8.11893 18.3027 10.0821 18.3026 11.2929 17.0918L12.3891 15.9956ZM15.9956 13.0962C15.8004 12.9009 15.8004 12.5843 15.9956 12.3891L17.0918 11.2929C18.3027 10.082 18.3027 8.11893 17.0918 6.90811C15.881 5.6973 13.9179 5.6973 12.7071 6.90811L11.6109 8.0043C11.4156 8.19956 11.099 8.19956 10.9038 8.0043C10.7085 7.80904 10.7085 7.49245 10.9038 7.29719L12 6.20101C13.6013 4.59967 16.1976 4.59966 17.7989 6.201C19.4003 7.80235 19.4003 10.3986 17.7989 12L16.7028 13.0962C16.5075 13.2914 16.1909 13.2914 15.9956 13.0962ZM14.5281 10.179C14.7234 9.98371 14.7234 9.66713 14.5281 9.47187C14.3328 9.2766 14.0163 9.2766 13.821 9.47187L9.47179 13.8211C9.27652 14.0164 9.27652 14.333 9.47179 14.5282C9.66705 14.7235 9.98363 14.7235 10.1789 14.5282L14.5281 10.179Z" fill="#44361D"/>
</svg>
