<svg width="24" height="24" viewBox="0 0 24 24" fill="none" xmlns="http://www.w3.org/2000/svg">
<mask id="path-1-inside-1_246_254" fill="white">
<path d="M4 6C4 4.89543 4.89543 4 6 4H18C19.1046 4 20 4.89543 20 6V18C20 19.1046 19.1046 20 18 20H6C4.89543 20 4 19.1046 4 18V6Z"/>
</mask>
<path d="M6 5H18V3H6V5ZM19 6V18H21V6H19ZM18 19H6V21H18V19ZM5 18V6H3V18H5ZM6 19C5.44772 19 5 18.5523 5 18H3C3 19.6569 4.34315 21 6 21V19ZM19 18C19 18.5523 18.5523 19 18 19V21C19.6569 21 21 19.6569 21 18H19ZM18 5C18.5523 5 19 5.44772 19 6H21C21 4.34315 19.6569 3 18 3V5ZM6 3C4.34315 3 3 4.34315 3 6H5C5 5.44772 5.44772 5 6 5V3Z" fill="#76787F" mask="url(#path-1-inside-1_246_254)"/>
<path d="M8 8H16" stroke="#76787F" stroke-linecap="round"/>
<path d="M8 11H16" stroke="#76787F" stroke-linecap="round"/>
<path d="M8 14H16" stroke="#76787F" stroke-linecap="round"/>
</svg>
