<svg width="24" height="24" viewBox="0 0 24 24" fill="none" xmlns="http://www.w3.org/2000/svg">
<g clip-path="url(#clip0_246_102)">
<path d="M5.04435 15.9549L5.50856 16.1406C5.56515 15.9992 5.55419 15.8397 5.47877 15.7073L5.04435 15.9549ZM4.99607 16.1104L5.4837 16.2209V16.2209L4.99607 16.1104ZM4.43695 18.5779L4.92459 18.6883L4.43695 18.5779ZM5.70848 19.754L5.56035 19.2764L5.70848 19.754ZM8.1249 19.0044L8.27302 19.482L8.27304 19.482L8.1249 19.0044ZM8.12945 19.003L8.37171 18.5656C8.25183 18.4992 8.10995 18.485 7.97924 18.5261L8.12945 19.003ZM19.5 12C19.5 16.1421 16.1421 19.5 12 19.5V20.5C16.6944 20.5 20.5 16.6944 20.5 12H19.5ZM12 4.5C16.1421 4.5 19.5 7.85786 19.5 12H20.5C20.5 7.30558 16.6944 3.5 12 3.5V4.5ZM4.5 12C4.5 7.85786 7.85786 4.5 12 4.5V3.5C7.30558 3.5 3.5 7.30558 3.5 12H4.5ZM5.47877 15.7073C4.85597 14.6143 4.5 13.3495 4.5 12H3.5C3.5 13.5276 3.90343 14.9625 4.60992 16.2024L5.47877 15.7073ZM5.4837 16.2209C5.49023 16.1921 5.49865 16.1654 5.50856 16.1406L4.58014 15.7691C4.55057 15.843 4.52652 15.9201 4.50843 15.9999L5.4837 16.2209ZM4.92459 18.6883L5.4837 16.2209L4.50843 15.9999L3.94932 18.4674L4.92459 18.6883ZM5.56035 19.2764C5.19273 19.3904 4.83953 19.0637 4.92459 18.6883L3.94932 18.4674C3.69413 19.5935 4.75374 20.5736 5.8566 20.2315L5.56035 19.2764ZM7.97677 18.5269L5.56035 19.2764L5.8566 20.2315L8.27302 19.482L7.97677 18.5269ZM7.97924 18.5261C7.97842 18.5264 7.97759 18.5266 7.97676 18.5269L8.27304 19.482C8.27524 19.4813 8.27745 19.4806 8.27965 19.4799L7.97924 18.5261ZM12 19.5C10.6829 19.5 9.44644 19.1609 8.37171 18.5656L7.88718 19.4404C9.10641 20.1157 10.5091 20.5 12 20.5V19.5Z" fill="#76787F"/>
</g>
<defs>
<clipPath id="clip0_246_102">
<rect width="24" height="24" fill="white"/>
</clipPath>
</defs>
</svg>
