<svg width="24" height="24" viewBox="0 0 24 24" fill="none" xmlns="http://www.w3.org/2000/svg">
<path d="M5.13994 9.68259C5.50593 6.16905 8.46745 3.5 12 3.5C15.5326 3.5 18.4941 6.16905 18.8601 9.68259L19.1496 12.4617C19.2414 13.3434 19.4613 14.207 19.8022 15.0253L20.4919 16.6807C20.8526 17.5461 20.2167 18.5 19.279 18.5H4.72096C3.78334 18.5 3.14744 17.5462 3.50806 16.6807L4.19777 15.0253C4.53873 14.207 4.7586 13.3434 4.85044 12.4617L5.13994 9.68259Z" stroke="#76787F"/>
<mask id="path-2-outside-1_246_669" maskUnits="userSpaceOnUse" x="6.76367" y="18" width="10" height="3" fill="black">
<rect fill="white" x="6.76367" y="18" width="10" height="3"/>
<path fill-rule="evenodd" clip-rule="evenodd" d="M9.76367 19C10.313 19.6137 11.1113 20 11.9998 20C12.8883 20 13.6866 19.6137 14.2359 19H9.76367Z"/>
</mask>
<path d="M9.76367 19V18H7.52661L9.01854 19.6669L9.76367 19ZM14.2359 19L14.981 19.6669L16.4729 18H14.2359V19ZM11.9998 19C11.4075 19 10.8765 18.7438 10.5088 18.3331L9.01854 19.6669C9.74953 20.4836 10.815 21 11.9998 21V19ZM13.4907 18.3331C13.1231 18.7439 12.592 19 11.9998 19V21C13.1845 21 14.25 20.4836 14.981 19.6669L13.4907 18.3331ZM14.2359 18H9.76367V20H14.2359V18Z" fill="#76787F" mask="url(#path-2-outside-1_246_669)"/>
</svg>
