<svg width="32" height="32" viewBox="0 0 32 32" fill="none" xmlns="http://www.w3.org/2000/svg">
<rect width="32" height="32" rx="4" fill="#ECEBE8"/>
<path d="M10.7033 9.63086C9.60898 9.63086 8.69042 10.4801 8.61367 11.5645C8.58643 11.9483 8.65824 12.3283 8.82164 12.6651C9.18065 13.4041 9.36263 14.163 9.36263 14.9206V22.4622L11.2121 22.4845H20.5388L20.5599 14.9218C20.5599 14.1642 20.7418 13.4054 21.0984 12.6675C21.263 12.3296 21.3348 11.9495 21.3076 11.567C21.2308 10.4826 20.3135 9.63334 19.2179 9.63334H10.7033V9.63086Z" fill="white"/>
<path d="M21.2244 22.4575V14.9159C21.2244 14.2684 21.3816 13.616 21.6923 12.976C21.9114 12.5254 22.008 12.0191 21.9709 11.509C21.8681 10.0631 20.6586 8.93164 19.2189 8.93164H10.7031C9.2621 8.93164 8.05386 10.0644 7.95111 11.509C7.91521 12.0191 8.01053 12.5254 8.22965 12.976C8.54037 13.616 8.69883 14.2684 8.69883 14.9159V22.4575C8.69883 22.8524 9.00708 23.1742 9.38465 23.1742H20.5398C20.9174 23.1742 21.2256 22.8524 21.2256 22.4575H21.2244Z" fill="white"/>
<path d="M25.6428 11.3662C25.4682 8.91758 23.4504 7 21.0475 7H10.7032C8.30159 7 6.2825 8.91758 6.10795 11.3662C6.04605 12.2279 6.2107 13.087 6.58208 13.852C6.76035 14.2185 6.85072 14.5775 6.85072 14.9167V22.4583C6.85072 23.919 7.98715 25.1075 9.3848 25.1075H22.3684C23.766 25.1075 24.9025 23.919 24.9025 22.4583V14.9167C24.9025 14.5762 24.9928 14.2172 25.1711 13.852C25.5425 13.087 25.7059 12.2279 25.6452 11.3662H25.6428ZM11.212 23.175H9.38356C9.00599 23.175 8.69774 22.8532 8.69774 22.4583V14.9167C8.69774 14.2692 8.54052 13.6168 8.22855 12.9768C8.00944 12.5262 7.91412 12.0199 7.95002 11.5098C8.05277 10.0639 9.26224 8.93244 10.702 8.93244H19.2178C20.6588 8.93244 21.867 10.0652 21.9698 11.5098C22.0057 12.0199 21.9091 12.5262 21.6912 12.9768C21.3805 13.6168 21.2233 14.2692 21.2233 14.9167V22.4583C21.2233 22.8532 20.915 23.175 20.5375 23.175H11.212Z" fill="#695E4A"/>
<path d="M25.6428 11.3662C25.4682 8.91758 23.4504 7 21.0475 7H10.7032C8.30159 7 6.2825 8.91758 6.10795 11.3662C6.04605 12.2279 6.2107 13.087 6.58208 13.852C6.76035 14.2185 6.85072 14.5775 6.85072 14.9167V22.4583C6.85072 23.919 7.98715 25.1075 9.3848 25.1075H22.3684C23.766 25.1075 24.9025 23.919 24.9025 22.4583V14.9167C24.9025 14.5762 24.9928 14.2172 25.1711 13.852C25.5425 13.087 25.7059 12.2279 25.6452 11.3662H25.6428ZM11.212 23.175H9.38356C9.00599 23.175 8.69774 22.8532 8.69774 22.4583V14.9167C8.69774 14.2692 8.54052 13.6168 8.22855 12.9768C8.00944 12.5262 7.91412 12.0199 7.95002 11.5098C8.05277 10.0639 9.26224 8.93244 10.702 8.93244H19.2178C20.6588 8.93244 21.867 10.0652 21.9698 11.5098C22.0057 12.0199 21.9091 12.5262 21.6912 12.9768C21.3805 13.6168 21.2233 14.2692 21.2233 14.9167V22.4583C21.2233 22.8532 20.915 23.175 20.5375 23.175H11.212Z" fill="#695E4A"/>
</svg>
