<svg width="64" height="65" viewBox="0 0 64 65" fill="none" xmlns="http://www.w3.org/2000/svg">
<g clip-path="url(#clip0_770_1286)">
<path fill-rule="evenodd" clip-rule="evenodd" d="M32 30.5C36.4183 30.5 40 26.9183 40 22.5C40 18.0817 36.4183 14.5 32 14.5C27.5817 14.5 24 18.0817 24 22.5C24 23.9386 24.3797 25.2884 25.0443 26.4549C25.0246 26.5042 25.0084 26.5561 24.9961 26.6104L24.437 29.0779C24.2668 29.8286 24.9732 30.482 25.7085 30.254L28.1249 29.5044C28.1264 29.504 28.1279 29.5035 28.1294 29.503C29.2764 30.1383 30.596 30.5 32 30.5Z" fill="#A9A397"/>
</g>
<path d="M20.6247 45.4443H22.1482V41.4199H23.3035V52.0205H22.1482V46.4346H20.6247V49.583H16.2068V42.4863H20.6247V45.4443ZM17.3494 48.6182H19.4949V43.4385H17.3494V48.6182ZM25.614 52.5791H24.4587V41.2041H25.614V52.5791ZM30.978 44.0986C30.9738 44.7842 31.0986 45.4591 31.3525 46.1235C31.6107 46.7837 31.9683 47.3719 32.4253 47.8882C32.8866 48.4045 33.4071 48.7917 33.9868 49.0498L33.2632 50.002C32.6157 49.693 32.0423 49.2381 31.543 48.6372C31.0436 48.0321 30.6585 47.3381 30.3877 46.5552C30.1211 47.3973 29.7318 48.1421 29.2197 48.7896C28.7119 49.437 28.1216 49.9258 27.4487 50.2559L26.7124 49.2402C27.3006 48.9779 27.8254 48.5801 28.2866 48.0469C28.7521 47.5137 29.1139 46.9022 29.3721 46.2124C29.6302 45.5184 29.7593 44.8138 29.7593 44.0986V42.1562H30.978V44.0986ZM36.2212 52.6045H35.0151V41.2041H36.2212V52.6045ZM41.9661 44.5557C41.9661 45.1862 42.093 45.8104 42.3469 46.4282C42.6051 47.0461 42.9605 47.5983 43.4133 48.085C43.8704 48.5674 44.3866 48.9313 44.9622 49.1768L44.302 50.1162C43.6376 49.8242 43.0494 49.3841 42.5374 48.7959C42.0253 48.2035 41.636 47.5243 41.3694 46.7583C41.1028 47.575 40.7114 48.3071 40.1951 48.9546C39.683 49.6021 39.1012 50.0866 38.4495 50.4082L37.7512 49.4561C38.3098 49.1937 38.8176 48.8022 39.2747 48.2817C39.7317 47.757 40.0893 47.1667 40.3474 46.5107C40.6098 45.8506 40.7431 45.1989 40.7473 44.5557V43.3496H38.1448V42.3467H44.5559V43.3496H41.9661V44.5557ZM47.1965 52.5791H45.9905V41.2041H47.1965V52.5791Z" fill="#827868"/>
<defs>
<clipPath id="clip0_770_1286">
<rect width="24" height="24" fill="white" transform="translate(20 10.5)"/>
</clipPath>
</defs>
</svg>
